<mxfile host="app.diagrams.net" agent="Mozilla/5.0 (Macintosh; Intel Mac OS X 10_15_7) AppleWebKit/537.36 (KHTML, like Gecko) Chrome/139.0.0.0 Safari/537.36" version="28.1.2">
  <diagram name="Page-1" id="kjZR2M4YM21d5MbfpueH">
    <mxGraphModel grid="1" page="1" gridSize="10" guides="1" tooltips="1" connect="1" arrows="1" fold="1" pageScale="1" pageWidth="850" pageHeight="1100" math="0" shadow="0">
      <root>
        <mxCell id="0" />
        <mxCell id="1" parent="0" />
        <mxCell id="c-1eg6soqsbluL0bjHq3-1" value="AWS Account (Development)" style="points=[[0,0],[0.25,0],[0.5,0],[0.75,0],[1,0],[1,0.25],[1,0.5],[1,0.75],[1,1],[0.75,1],[0.5,1],[0.25,1],[0,1],[0,0.75],[0,0.5],[0,0.25]];outlineConnect=0;gradientColor=none;html=1;whiteSpace=wrap;fontSize=12;fontStyle=0;container=0;pointerEvents=0;collapsible=0;recursiveResize=0;shape=mxgraph.aws4.group;grIcon=mxgraph.aws4.group_account;strokeColor=#CD2264;fillColor=none;verticalAlign=top;align=left;spacingLeft=30;fontColor=#CD2264;dashed=0;" vertex="1" parent="1">
          <mxGeometry x="190" y="130" width="620" height="590" as="geometry" />
        </mxCell>
        <mxCell id="c-1eg6soqsbluL0bjHq3-6" value="" style="rounded=0;whiteSpace=wrap;html=1;" vertex="1" parent="1">
          <mxGeometry x="310" y="184" width="220" height="216" as="geometry" />
        </mxCell>
        <mxCell id="c-1eg6soqsbluL0bjHq3-3" value="S3 Bucket" style="sketch=0;points=[[0,0,0],[0.25,0,0],[0.5,0,0],[0.75,0,0],[1,0,0],[0,1,0],[0.25,1,0],[0.5,1,0],[0.75,1,0],[1,1,0],[0,0.25,0],[0,0.5,0],[0,0.75,0],[1,0.25,0],[1,0.5,0],[1,0.75,0]];outlineConnect=0;fontColor=#232F3E;fillColor=#7AA116;strokeColor=#ffffff;dashed=0;verticalLabelPosition=bottom;verticalAlign=top;align=center;html=1;fontSize=12;fontStyle=0;aspect=fixed;shape=mxgraph.aws4.resourceIcon;resIcon=mxgraph.aws4.s3;" vertex="1" parent="1">
          <mxGeometry x="440" y="204" width="50" height="50" as="geometry" />
        </mxCell>
        <mxCell id="c-1eg6soqsbluL0bjHq3-2" value="CloudFront" style="sketch=0;points=[[0,0,0],[0.25,0,0],[0.5,0,0],[0.75,0,0],[1,0,0],[0,1,0],[0.25,1,0],[0.5,1,0],[0.75,1,0],[1,1,0],[0,0.25,0],[0,0.5,0],[0,0.75,0],[1,0.25,0],[1,0.5,0],[1,0.75,0]];outlineConnect=0;fontColor=#232F3E;fillColor=#8C4FFF;strokeColor=#ffffff;dashed=0;verticalLabelPosition=bottom;verticalAlign=top;align=center;html=1;fontSize=12;fontStyle=0;aspect=fixed;shape=mxgraph.aws4.resourceIcon;resIcon=mxgraph.aws4.cloudfront;" vertex="1" parent="1">
          <mxGeometry x="350" y="204" width="50" height="50" as="geometry" />
        </mxCell>
        <mxCell id="c-1eg6soqsbluL0bjHq3-4" value="" style="edgeStyle=orthogonalEdgeStyle;rounded=0;orthogonalLoop=1;jettySize=auto;html=1;" edge="1" parent="1" source="c-1eg6soqsbluL0bjHq3-2" target="c-1eg6soqsbluL0bjHq3-3">
          <mxGeometry relative="1" as="geometry" />
        </mxCell>
        <mxCell id="c-1eg6soqsbluL0bjHq3-5" value="Route 53" style="sketch=0;points=[[0,0,0],[0.25,0,0],[0.5,0,0],[0.75,0,0],[1,0,0],[0,1,0],[0.25,1,0],[0.5,1,0],[0.75,1,0],[1,1,0],[0,0.25,0],[0,0.5,0],[0,0.75,0],[1,0.25,0],[1,0.5,0],[1,0.75,0]];outlineConnect=0;fontColor=#232F3E;fillColor=#8C4FFF;strokeColor=#ffffff;dashed=0;verticalLabelPosition=bottom;verticalAlign=top;align=center;html=1;fontSize=12;fontStyle=0;aspect=fixed;shape=mxgraph.aws4.resourceIcon;resIcon=mxgraph.aws4.route_53;" vertex="1" parent="1">
          <mxGeometry x="220" y="380" width="50" height="50" as="geometry" />
        </mxCell>
        <mxCell id="c-1eg6soqsbluL0bjHq3-7" value="Frontend" style="text;html=1;align=center;verticalAlign=middle;resizable=0;points=[];autosize=1;strokeColor=none;fillColor=none;" vertex="1" parent="1">
          <mxGeometry x="390" y="160" width="70" height="30" as="geometry" />
        </mxCell>
        <mxCell id="c-1eg6soqsbluL0bjHq3-23" style="edgeStyle=orthogonalEdgeStyle;rounded=0;orthogonalLoop=1;jettySize=auto;html=1;" edge="1" parent="1" source="c-1eg6soqsbluL0bjHq3-8">
          <mxGeometry relative="1" as="geometry">
            <mxPoint x="375" y="280" as="targetPoint" />
          </mxGeometry>
        </mxCell>
        <mxCell id="c-1eg6soqsbluL0bjHq3-8" value="Certificate Manager&lt;div&gt;(ACM)&lt;/div&gt;" style="sketch=0;points=[[0,0,0],[0.25,0,0],[0.5,0,0],[0.75,0,0],[1,0,0],[0,1,0],[0.25,1,0],[0.5,1,0],[0.75,1,0],[1,1,0],[0,0.25,0],[0,0.5,0],[0,0.75,0],[1,0.25,0],[1,0.5,0],[1,0.75,0]];outlineConnect=0;fontColor=#232F3E;fillColor=#DD344C;strokeColor=#ffffff;dashed=0;verticalLabelPosition=bottom;verticalAlign=top;align=center;html=1;fontSize=12;fontStyle=0;aspect=fixed;shape=mxgraph.aws4.resourceIcon;resIcon=mxgraph.aws4.certificate_manager_3;" vertex="1" parent="1">
          <mxGeometry x="350" y="310" width="50" height="50" as="geometry" />
        </mxCell>
        <mxCell id="c-1eg6soqsbluL0bjHq3-9" style="edgeStyle=orthogonalEdgeStyle;rounded=0;orthogonalLoop=1;jettySize=auto;html=1;" edge="1" parent="1" source="c-1eg6soqsbluL0bjHq3-5">
          <mxGeometry relative="1" as="geometry">
            <mxPoint x="350" y="230" as="targetPoint" />
            <Array as="points">
              <mxPoint x="245" y="230" />
            </Array>
          </mxGeometry>
        </mxCell>
        <mxCell id="c-1eg6soqsbluL0bjHq3-10" value="Record&lt;div&gt;points to&lt;/div&gt;&lt;div&gt;CloudFront&lt;/div&gt;&lt;div&gt;distribution&lt;/div&gt;" style="edgeLabel;html=1;align=center;verticalAlign=middle;resizable=0;points=[];" connectable="0" vertex="1" parent="c-1eg6soqsbluL0bjHq3-9">
          <mxGeometry x="-0.099" y="1" relative="1" as="geometry">
            <mxPoint x="1" y="-36" as="offset" />
          </mxGeometry>
        </mxCell>
        <mxCell id="c-1eg6soqsbluL0bjHq3-12" value="Backend" style="rounded=0;whiteSpace=wrap;html=1;fillColor=#f5f5f5;fontColor=#333333;strokeColor=#666666;" vertex="1" parent="1">
          <mxGeometry x="720" y="380" width="70" height="40" as="geometry" />
        </mxCell>
        <mxCell id="c-1eg6soqsbluL0bjHq3-13" value="" style="endArrow=classic;html=1;rounded=0;exitX=1;exitY=0.5;exitDx=0;exitDy=0;entryX=0;entryY=0.25;entryDx=0;entryDy=0;edgeStyle=orthogonalEdgeStyle;" edge="1" parent="1" source="c-1eg6soqsbluL0bjHq3-6" target="c-1eg6soqsbluL0bjHq3-12">
          <mxGeometry width="50" height="50" relative="1" as="geometry">
            <mxPoint x="480" y="330" as="sourcePoint" />
            <mxPoint x="530" y="280" as="targetPoint" />
            <Array as="points">
              <mxPoint x="670" y="292" />
              <mxPoint x="670" y="390" />
            </Array>
          </mxGeometry>
        </mxCell>
        <mxCell id="c-1eg6soqsbluL0bjHq3-27" style="edgeStyle=orthogonalEdgeStyle;rounded=0;orthogonalLoop=1;jettySize=auto;html=1;entryX=0;entryY=0.75;entryDx=0;entryDy=0;" edge="1" parent="1" source="c-1eg6soqsbluL0bjHq3-14" target="c-1eg6soqsbluL0bjHq3-12">
          <mxGeometry relative="1" as="geometry" />
        </mxCell>
        <mxCell id="c-1eg6soqsbluL0bjHq3-14" value="" style="rounded=0;whiteSpace=wrap;html=1;" vertex="1" parent="1">
          <mxGeometry x="310" y="474" width="310" height="216" as="geometry" />
        </mxCell>
        <mxCell id="c-1eg6soqsbluL0bjHq3-15" value="S3 Bucket" style="sketch=0;points=[[0,0,0],[0.25,0,0],[0.5,0,0],[0.75,0,0],[1,0,0],[0,1,0],[0.25,1,0],[0.5,1,0],[0.75,1,0],[1,1,0],[0,0.25,0],[0,0.5,0],[0,0.75,0],[1,0.25,0],[1,0.5,0],[1,0.75,0]];outlineConnect=0;fontColor=#232F3E;fillColor=#7AA116;strokeColor=#ffffff;dashed=0;verticalLabelPosition=bottom;verticalAlign=top;align=center;html=1;fontSize=12;fontStyle=0;aspect=fixed;shape=mxgraph.aws4.resourceIcon;resIcon=mxgraph.aws4.s3;" vertex="1" parent="1">
          <mxGeometry x="550" y="494" width="50" height="50" as="geometry" />
        </mxCell>
        <mxCell id="c-1eg6soqsbluL0bjHq3-25" value="" style="edgeStyle=orthogonalEdgeStyle;rounded=0;orthogonalLoop=1;jettySize=auto;html=1;" edge="1" parent="1" source="c-1eg6soqsbluL0bjHq3-16" target="c-1eg6soqsbluL0bjHq3-24">
          <mxGeometry relative="1" as="geometry" />
        </mxCell>
        <mxCell id="c-1eg6soqsbluL0bjHq3-16" value="CloudFront" style="sketch=0;points=[[0,0,0],[0.25,0,0],[0.5,0,0],[0.75,0,0],[1,0,0],[0,1,0],[0.25,1,0],[0.5,1,0],[0.75,1,0],[1,1,0],[0,0.25,0],[0,0.5,0],[0,0.75,0],[1,0.25,0],[1,0.5,0],[1,0.75,0]];outlineConnect=0;fontColor=#232F3E;fillColor=#8C4FFF;strokeColor=#ffffff;dashed=0;verticalLabelPosition=bottom;verticalAlign=top;align=center;html=1;fontSize=12;fontStyle=0;aspect=fixed;shape=mxgraph.aws4.resourceIcon;resIcon=mxgraph.aws4.cloudfront;" vertex="1" parent="1">
          <mxGeometry x="350" y="494" width="50" height="50" as="geometry" />
        </mxCell>
        <mxCell id="c-1eg6soqsbluL0bjHq3-18" value="Frontend Ephemeral" style="text;html=1;align=center;verticalAlign=middle;resizable=0;points=[];autosize=1;strokeColor=none;fillColor=none;" vertex="1" parent="1">
          <mxGeometry x="410" y="449" width="130" height="30" as="geometry" />
        </mxCell>
        <mxCell id="c-1eg6soqsbluL0bjHq3-20" value="" style="edgeStyle=orthogonalEdgeStyle;rounded=0;orthogonalLoop=1;jettySize=auto;html=1;" edge="1" parent="1" source="c-1eg6soqsbluL0bjHq3-19">
          <mxGeometry relative="1" as="geometry">
            <mxPoint x="375" y="570" as="targetPoint" />
          </mxGeometry>
        </mxCell>
        <mxCell id="c-1eg6soqsbluL0bjHq3-19" value="Certificate Manager&lt;div&gt;(ACM)&lt;/div&gt;" style="sketch=0;points=[[0,0,0],[0.25,0,0],[0.5,0,0],[0.75,0,0],[1,0,0],[0,1,0],[0.25,1,0],[0.5,1,0],[0.75,1,0],[1,1,0],[0,0.25,0],[0,0.5,0],[0,0.75,0],[1,0.25,0],[1,0.5,0],[1,0.75,0]];outlineConnect=0;fontColor=#232F3E;fillColor=#DD344C;strokeColor=#ffffff;dashed=0;verticalLabelPosition=bottom;verticalAlign=top;align=center;html=1;fontSize=12;fontStyle=0;aspect=fixed;shape=mxgraph.aws4.resourceIcon;resIcon=mxgraph.aws4.certificate_manager_3;" vertex="1" parent="1">
          <mxGeometry x="350" y="600" width="50" height="50" as="geometry" />
        </mxCell>
        <mxCell id="c-1eg6soqsbluL0bjHq3-26" value="" style="edgeStyle=orthogonalEdgeStyle;rounded=0;orthogonalLoop=1;jettySize=auto;html=1;" edge="1" parent="1" source="c-1eg6soqsbluL0bjHq3-24" target="c-1eg6soqsbluL0bjHq3-15">
          <mxGeometry relative="1" as="geometry" />
        </mxCell>
        <mxCell id="c-1eg6soqsbluL0bjHq3-24" value="Lambda@Edge&lt;div&gt;Function&lt;/div&gt;&lt;div&gt;(viewer-request)&lt;/div&gt;" style="sketch=0;points=[[0,0,0],[0.25,0,0],[0.5,0,0],[0.75,0,0],[1,0,0],[0,1,0],[0.25,1,0],[0.5,1,0],[0.75,1,0],[1,1,0],[0,0.25,0],[0,0.5,0],[0,0.75,0],[1,0.25,0],[1,0.5,0],[1,0.75,0]];outlineConnect=0;fontColor=#232F3E;fillColor=#ED7100;strokeColor=#ffffff;dashed=0;verticalLabelPosition=bottom;verticalAlign=top;align=center;html=1;fontSize=12;fontStyle=0;aspect=fixed;shape=mxgraph.aws4.resourceIcon;resIcon=mxgraph.aws4.lambda;" vertex="1" parent="1">
          <mxGeometry x="450" y="494" width="50" height="50" as="geometry" />
        </mxCell>
        <mxCell id="c-1eg6soqsbluL0bjHq3-40" value="" style="edgeStyle=orthogonalEdgeStyle;rounded=0;orthogonalLoop=1;jettySize=auto;html=1;" edge="1" parent="1" source="c-1eg6soqsbluL0bjHq3-29" target="c-1eg6soqsbluL0bjHq3-39">
          <mxGeometry relative="1" as="geometry" />
        </mxCell>
        <mxCell id="c-1eg6soqsbluL0bjHq3-41" value="Triggers&lt;div&gt;Workflow&lt;/div&gt;" style="edgeLabel;html=1;align=center;verticalAlign=middle;resizable=0;points=[];" connectable="0" vertex="1" parent="c-1eg6soqsbluL0bjHq3-40">
          <mxGeometry x="-0.1" y="-1" relative="1" as="geometry">
            <mxPoint x="-5" y="-1" as="offset" />
          </mxGeometry>
        </mxCell>
        <mxCell id="c-1eg6soqsbluL0bjHq3-29" value="GitHub&lt;div&gt;Repository&lt;/div&gt;" style="dashed=0;outlineConnect=0;html=1;align=center;labelPosition=center;verticalLabelPosition=bottom;verticalAlign=top;shape=mxgraph.weblogos.github" vertex="1" parent="1">
          <mxGeometry x="400" y="760" width="50" height="50" as="geometry" />
        </mxCell>
        <mxCell id="c-1eg6soqsbluL0bjHq3-33" style="edgeStyle=orthogonalEdgeStyle;rounded=0;orthogonalLoop=1;jettySize=auto;html=1;" edge="1" parent="1" source="c-1eg6soqsbluL0bjHq3-30" target="c-1eg6soqsbluL0bjHq3-29">
          <mxGeometry relative="1" as="geometry" />
        </mxCell>
        <mxCell id="c-1eg6soqsbluL0bjHq3-34" value="Opens&lt;div&gt;Pull Request&lt;/div&gt;" style="edgeLabel;html=1;align=center;verticalAlign=middle;resizable=0;points=[];" connectable="0" vertex="1" parent="c-1eg6soqsbluL0bjHq3-33">
          <mxGeometry x="-0.0728" y="-4" relative="1" as="geometry">
            <mxPoint x="-1" y="-4" as="offset" />
          </mxGeometry>
        </mxCell>
        <mxCell id="c-1eg6soqsbluL0bjHq3-30" value="&lt;div&gt;&lt;br&gt;&lt;/div&gt;&lt;div&gt;&lt;br&gt;&lt;/div&gt;&lt;div&gt;&lt;br&gt;&lt;/div&gt;&lt;div&gt;&lt;br&gt;&lt;/div&gt;&lt;div&gt;&lt;br&gt;&lt;/div&gt;Developer" style="shape=actor;whiteSpace=wrap;html=1;" vertex="1" parent="1">
          <mxGeometry x="250" y="760" width="40" height="50" as="geometry" />
        </mxCell>
        <mxCell id="c-1eg6soqsbluL0bjHq3-31" style="edgeStyle=orthogonalEdgeStyle;rounded=0;orthogonalLoop=1;jettySize=auto;html=1;entryX=0;entryY=0.5;entryDx=0;entryDy=0;entryPerimeter=0;" edge="1" parent="1" source="c-1eg6soqsbluL0bjHq3-5" target="c-1eg6soqsbluL0bjHq3-16">
          <mxGeometry relative="1" as="geometry">
            <Array as="points">
              <mxPoint x="245" y="519" />
            </Array>
          </mxGeometry>
        </mxCell>
        <mxCell id="c-1eg6soqsbluL0bjHq3-32" value="Record&lt;div&gt;points to&lt;/div&gt;&lt;div&gt;CloudFront&lt;/div&gt;&lt;div&gt;distribution&lt;/div&gt;" style="edgeLabel;html=1;align=center;verticalAlign=middle;resizable=0;points=[];" connectable="0" vertex="1" parent="c-1eg6soqsbluL0bjHq3-31">
          <mxGeometry x="-0.189" y="3" relative="1" as="geometry">
            <mxPoint x="-3" y="10" as="offset" />
          </mxGeometry>
        </mxCell>
        <mxCell id="c-1eg6soqsbluL0bjHq3-39" value="GitHub&#xa;Actions" style="shape=image;verticalLabelPosition=bottom;labelBackgroundColor=default;verticalAlign=top;aspect=fixed;imageAspect=0;image=data:image/png,iVBORw0KGgoAAAANSUhEUgAAAMgAAADICAYAAACtWK6eAAAAAXNSR0IArs4c6QAAAERlWElmTU0AKgAAAAgAAYdpAAQAAAABAAAAGgAAAAAAA6ABAAMAAAABAAEAAKACAAQAAAABAAAAyKADAAQAAAABAAAAyAAAAACbWz2VAAAzJUlEQVR4Ae19D3hU1Zn3nUmEpAUSIpWgVCYQlT5FxJa2tILMhABxl1a2xacoQYLyJ91ln7VPacWvkpkEXf+sPrWf9BMUV5BYZatb3KVrIIF7E+M2VHSjYqVuQiYaSywIE4hlgDDz/d7JTJhM7j3n3pl7Z+5M7n2eZO4973ve857fPe89/99jE1J9fdU5auyVc24QBNuMMSXVU6GOQ7ALDltQGBW6j9EvKAgnEOSzCUJX0Ca0+RrcbfagcLivz37wjOQhmnVZCOiGAMpZ8q+x8zfeNMJRUpY7xVmKAj8TSmTrpIUXcqRT9e66nu6m3wnvS706ybXEDFMEkmYgeQs2fj3HUVKeM9m5BIlOTALefqRRd6rBXdvT1/SqIEl9SUjTSiLDEDDWQJzO7LFZN/9wzPzqe5DQzBRi1+0/Km05s6966+deqTuFelhJpxkCxhgIDKPwWveykZOd9yOBYhNh4j8LQ+ndV/2IZSgmeismVkV3AxlTWrWwoLT6CeSZOtxmvXznjkqPHdtX/bjglagpZl0WArII6GYgX3Q4C8dVik9C4BLZlMwZeMS3v6rSV7+p0ZzqWVqlGoEsPRSYsPrAD8Ys8OyDcXxND3lJlDEuZ7KrAgMH43o/6xQFn9fqyCcR/HRIKrEaxOHMKZzv/kXOFGelTpn1Qc4R+sP8htdmE04EA8LAUC2GhLMRNjF/fnUheBzBoDANGdBrRKz12LZ5S861HWjXKS+WmAxAIG4DCTep/hMC4h6dQoHvRfw9PsxbZGXZD362z0PGoeka7fSMy8oO3ISaoBSDAmWQl8iggO9cu7j02DMlezUpYTFnLAJxGcjIItd1hWsPNCCy5q83jIKaMbt7MD/ha2vaq3cnOX/hxhtovmVkkbMC+o3T+uZIv/NHpXXHnnZt1RrX4s88BDQbyJWVB266zOHaHUfhCw2xXviw8fGTkqfLcCjR/Bu/0L0sp8i5AbpqrlXOtkv3fPqM65eG62klYGoENBlI2DjqEInWSam66IuMIVWapHswJXMPmJMZf517RW6R8wEoTH0X1ZdlJKqhylhG1QYSblY1I4KWZkvL6b1Vq06Km95PNYL5Dmd+zgL3JoxYrdOii2UkWtDKPF5Vw7zUIb+iUiTjUPUFDtUaHdL/6Tq4cvVZ6flPzQCb3+f197614zXBFpBGokOPvIxRo9dlBY6y3KK5h3vf3vGBGn6LJ7MQ4BsI2vJXVor1KFBqZ8a7Tx2oWvDZv921S/B6A2aDy3+0qTPwUePOL3ytYjp0U9U3ySoo+htbVuC//O1NpjB2s2GayfpwDaTwtueexFf0eypBaD2+xTWn963n/6SSPyVs5z/z/tXX17grx+4oyB7r+CZPCXwcRuQUucqEtsYdVBPx+C165iCAd6980Qz5yCmul5U5LlHQrGru3Om6Jd32YBSuEX+Cfsljl3KifIc8vty5wXabModFyTQE7EoZyi12ToRxbFOiR4enq3FQHrqfdj1OHfHo/Cjd42uyZMJqcZkS3QrPPAQUm1hX/azjWRQINWurWlFzzEu3miP6VX7+9o6DuZOdOWhuzY4Ol7vPKnDcjD7Mc9RMk6NbYZmFgGwTK7xkvU5FVrvR57hR6/wGjYqNWeC+G0tDFiEN6vzn468bfy099e6XT11s2pWKHYCOh4MvQoel+GNe2Au/rfNe22omk0XMCASG1iCYWJuwYPt/IHfM+Q4ayqXRKq0d8vGrxX/Cyt/d+FqXIQ1aqpITRnIUfqfmTHF9P6+44g7BFvzjuaONHWFaUn58xxr35s2o+B6+GlewEgzVrFmB3daoFgulzKAN6YPQTkBkjb7qzOtch3T/6X2bDjKZYojj14i/gKOGJ1DAyBgUL9CLx86rbsAX/bnR1zqZhqooJB4CnDycqauiGoQ7UpXnqlHVsY9HDSuOeRAYXIOg9rj8G55/QwEt4KjYQpOAWuY5aLQod7KziiM3ljwj98aKuxDvL5jkeyeWaMTzWW/TcYxq+VHDLWDJB0aTA/ZA3bn2pk9YfBYtvREYVIOQgwX6erOyRE0rWj6ipY9AfQ4UOloLpfmCPtjU5NyO2kQcs9DD1E2zcIUI3R9W/xL9jMMK5IHggpKaDQMP1k1GIjCoBhm/VvpXFMgrWTnFwsP/d/yVu3aweGJpBbc9dy8mG0tiwzU+O7DgcA1qE6F3dOfvtdReGtMRSLbNFvgj7TZkxcXHotiWbdvpb5Noo5d1ZSACAzUI+a2Ccczk5NFPq3I5PEPI6HfQaJUeVw5Gvh5wlInvjVmw8Vt6CFSSQfvUsWNxjxKdwoFXdu7Vc9eyeCxaeiMwYCC0yYiXFXKZo3VIl2TiSzuNJ1sjfSqaNy2Fq8WnaJWuxriq2X1ilYfHPGKyk4sbT4ZFNy8ClwwEHg9ZalLfgzY7sXiUaPSlVaJROGQfIvksHjka7YXPrxQ/oCUxcvREw3r2bXoLejWz5CBvE8mVKovHoqUvAiEDoRdML5qTjd1G7QTE5ODmHrGKmnctHB3kyIW0XmzSQ8H/zHE4HXIMiYRhv/xmXvwRRSXMjwsvvkU3LwIhAyFH0jwVaQ85jycRum/vpne8da45tC4KX+1erbLg7WTR+ErxPZqIFDBcrTW+En9Pe9OrPH0wyqZXH0tJDSs8RQiEDIS8rLPSpwIScrDAYtKDBgfTtA/8L9tcX4G43VpFohYcRRORk8rE39Ogg9b4svz9nheZuiDd4vwyj0M2vhWY1gjYBZzPAQOg5o3ihQKwR2/vI4qJgXC2TerybrD9HVzwLIFuXSxeORr0nZlPnfi14r9Q/uR4tITBRxfTQEiW7ULA6odoATVNeO10eA0KFLNJQn6rUpEf+Kd6pWeL63p4Zt8MQ9HUiac8waPJesdy8b3CNQf+NhH9bW1N+3nxR0xxMT8yvPgW3ZwIoIllm8FTjZy68XiMovu8kg97Nv4RCyNnq5ndltHDgQm/PZMeDv6GZvRl6Nwg0gFMrSxGTGBycWTFt2jmRMAePvaMpZ0vHo+HLIHx0GhhZOdrrhv9HRIt7/BrlYEaZQmca79Hrou0xiV+GOchTrypHLpFTkMEqJPu4Oh9hENPHhmd+O6trke6t7i+giZXg9aEYSTj4PSursC18ata42IU7zAnTqEe/R1OGhY5yQjY6cBMTprmMZCwon6v5MXe8Pnn2qVyGMoJjv6DyDCSUaMX1mzXOhSMQ0XbBgmSeRgzMb4mnIwoK8gkCNjDp8kqqkNe1hWJKSYce8b1Ajrx10CN7VpUgZHMzMu++VYtcQS7vZPHb7/InWzlibDoJkOA28SiIwhMpvMgdagDjSHhlTgIxwmC6touv7R66SBBnIegnT95GRACIzliLHKaIRCaKGTpHH0+B4sv1TRafevF/njMxD+gZkgYtchsLTr7/BJ3PgbntRdqkWnxmh8BroGYPwtRGmLWGzPxG0/u3ThNxZCwtsJsHSMdBfTwuc0sA6H3hpnzUdfMq8ASYeawq5paZvgUAyunSggwZ9ApEgoSl0dJeLLDacYck4Kbka6Dm7ZNfX+FZH3J6eHWOKi1ernpWgxphUA2DZOiPT5OSWs6E1CJZpZw8gI5fpX4JPRZrFYnf7vUoJaX+M6NFEZ9kRPBJtg/47BY5DRDgJpYtIxC8QofmKlITymBDsfB8vYrVol0NIFq46Dm1YX/PbBNi+6qhnBtbCy1pGfxmgOBbNQeNDpTzFDHwaCljER70seW1GyG/jO1KkEnXmk91CcYDEzhpXPxgvaVxzyZFj21CGSj3dyGyUKnkhp01LISLRXhkZOi4LyhEsahuX+E2qO5e1/1T7Xqnlvs4nX6e89IHlPPGWnNs8UvCHbMlLexgEAhnEhHLbN4kkUbv1b8Ie1Bxw6+dXEZB/nUpSMa+jdBaVIbp+YyV+tCHyaOmhKzmE2DQDYmtw7ztKFzyMHzKo/PKDrtNS/8kfgUhtTK4kkDtUabb7+7sqe+hruvQ1Z+/xbeWbK0cCDS4OLIim/RzImAva+Pv9cDQ6elKVEfBXPCGvHnhag14jQOP82sd2LTVdzGgYyPvWzOt1BDjGJh0LPffYhFt2jpiYA93G72stRHez+uLzdLJo9GnlbIQRw5igNvDo9fhi59tnfjDJpZj6dJFS1PjVMLtFYbo+NY95mBQGgmHR115pwAvp7F+Qs33pCMLJM3d/LqnjevphnpMTvGcvqgqXOClsFjAaPrjPiALmclwv/WUrm0osJ8vnpPa9SzdZshCIQMxLfPzTQQyqsaz4uJYgIP8CsK7grNaVTEIwuGvo2Wv9My+Hjiy8Wh4WT6QMjRosLqou6t2wxCIGQgPd1Nv0Oe/Kx8YRSnQsCR0CyeeGm5U1xTsWf8dYxObUdh1DxiBsM43LO/ajad+hTePx6vKkPiwcVp5ZDAmAA4vtsTE2Q9ZggCIQMJny/I/ApSwR2/MHS4ju5ZRz9jA+TPjkOwn/ao0171U/Wb3ogjPjNK2MkDr3nlP9XdlLIRPmYGLGLCCPQbCMScUuE5EW50Nmjdqkoaol/QlbCmsQJsQh3tTac96lrOKokVw3oetcB9L+i8WnN3Oh9gysq/RcPQSwSEnr7QV7A78iz3S23x8de5V8jROGESh66aTMZGDuW899puob3pqiNqZKTaIxez9bxop/a7t/F4LHr6InDpAB0cGoM+wCgcPeZkZeeysY5vCm2Nz/p9XmafJVpGUAj+NXeyqzw6TOs9DKMPDuT+7+e7Vv7wxIHq/9EaXyv/VRs6aHXwTFY86vt8urVE87IVlkyLZi4EBmoQUguH42zFD6/gF+YscG/Sko3TDTV7UcC5I2VKMhH3kO9A1axPn3b9WO9OuFya+fM3zkV4hRwtOgzDyY9FP1v3mYfApRoEebvg8/aiwzwOtcQsVlZRy3xTsAUk/9GmThZfNK2vrbH+izMrqBZhzkhHx8G9DzPhGz75w8q15/Y//0kMzZhH7EgsXLxjH4TnsxKA0bZ9cnDlWkOPgmMpYNGSggC6FYMvant/iZZ28AtI18l/dd145kPpxGAJyk+hNVWV4m/BwVz4RxJQAF+Gl/cfkyNrZYn6U2iSElIreJLR3KuAS9QdPD6Lnt4IDKpBKCtUi6Bzmo1aooSVNVjWmC98rWK6r69xl9qvaJ/P6wP/syNtjpPZBY5pJCM2DRhGM0bU1vzl6ZKH+k56T8fSjXzGauG7UXtyj6qGjoc+eaToH4zUxZJtDgSG1CAhtTAh6KgUqSM8lacmeV4n59I8Pjl6/nzPjGAgcB2UyCH/W9l99reOS55uOV6jwwpXH5iLk6oaoEs2L62T6A+Rr2Aen0VPfwTkDQT5oo5q/rwaSU0WYSTrYSRxnV+oRr7RPHTYDs4TkQAGt3+UyAfB6HxY8vVHYEgTK5IEdcAx7Dsu1CGPBCr8gmcBlqL4Pn97R9p9Vck4sHV3D4yjQCF7A8FoWrV9smflbcJx7/mBQOsmoxFQNBDKde9nnWL+zIpFuC3koXBZgaMMfZec3rd2xLcpiZeAAXRqVo36+l37VBpHH4aay861PN9pgCqWSJMigLLBvkYWl0yZsGr/IXAxhz2jpLzk3elabfblF9Qhx9KZLQCA2+egvKFptQ7NyF9F5dO6HQYIMGsQyv/Fkx2ncovmtmYVFC1FYRo0saiAz7S8GRXfy7oYaDrrbTquwJO6YMxzOH7SsZVGq1TmR4AXlG0wjo2pU9pKOVUIcA2EFOt9e0f7FyY7/4K+BjW3uBcK3hUji113oQ/j7x3d+abaYWCu4AQZaOAhPAnoVC0KiyK7Dq5cZpY8qNbbYtQFAVUGQimhb/EWdcSpr6EyZZpLWZB3TcX3bbbAH7XMuquUr5qNJj9pbRX21j+BSGqbijRZ2QwvKLcKb0q85TeqdbEY0wsBfOy1XeTJkM4i1xYrxL0bB3E+0LNv01txxI0rChkGLVnH4EElBORoERI2jlvM3pfSkieLVzsCmg2EkkjASEJfZRwrvbmnHcvr4/BPpSaLtE02vBNwKfg1GUZIPppV3uddt1nGoQbtzOaJy0AIkgmrD/wAZ4PTFlnu5JochPhC9yJ8NxzX7aZzyBNapQv3QOSah7yPkIMF6FQsl6aaMOqQH/uw+kdGbcJSo4PFYx4E4jYQygJ5Osl31ezGrYOeE7xasb/iEJ0mGzowE2cC0rFnoZOdwofX0BEE5GWdHEmTr1xyBxr2eDgrXkON6AyD7YNx3GMN5UYQsX4JgYQMhASQr9y8SvEZCFpCz+l4wTjaMAm41Ij+ERn1eXimhGOKWSMdzqlYc1aM9MYBr3HRWCGsC8/dCG+DoR7+a4fY0vPnpoPDqZlnRqwSNpDIS56wWlw2Ap332BcfoZv1N7S26o3q+/QsiJcv8EzNnjR3WU6xczFqw2kJ5N0Pw2lGn+0lW3vTKwk1QxNQwsioZsdKNwMhEMnpW8Hd4kMoFKuMBFUP2Sh4hzCqtk7PVbn5pVW35pVWrweos/XQMUaGH03Q2jN1VU9oPbohRo4pHtMFK10NJII89U3yXDWPQXhpJMwsvzAMasI8gL7GDr10GlNatbCgtPphyJuhl0yWHOSh9pRYXX16r6eNxWdGWrphZYiBRF5MeLh1A17oIiSUHQlPxS85WKA95N0fVr+g1wgVHf12xd3iU+hXqFphoHO+/WToGHEzzO2RnvqmK1aGGkgE4PwyjyP36rlrR0x2liPBiZHwJPzSDPhucs2TiHd3OT3prJJcLHYETfXMvJwcHcJaj22bt+Rc24F2HWQZIiKdsUqKgUSjTl7bRxSVLME6LapViqNpOt37IKeO3IGGPB6+L9F8i34X5lwKr3X/Avqv009oYpJQQ/eeOyou7X66hFzImufKAKySbiDRb49qFtuFwE1586vXI1xz+50KBjLQhl/45qXzOeyNhnpZp5XAd4q/wXKAsuh8mOEeGPTh5N71OO7hl2bQh86rzwSsUmogkRepxpMIhmM9Z4+Kh0NHLeM0WTowM6lnAuKFT1ouvgbAEhmhakWej2D1wBEYmTeSf5tdGJVT5JoIl0tTETYLf4URmtZfuEm6J+VGkkFYpY2BnKrHEWr7a8ixXfIvNBVwmE89EnZqSZy+6ujAN/Tsc9f2fdy0V62LJJobGOGY+wMYTDnSI6PRdKXUSDIMq7QxEJSQ3TgU5+80lRSdmHE0w04ARYVV1RUyDAzFnhSrH0x0KDZvftW8sfOq70fCTlWJg4nSR59kcSr6JJmGlZodgmrfi9F8ZbSsxehEYuXTymUtxoH40sm9G6fBmFcmahykC42+QZbrbIe0FAW/K1Y/uWfomz1ysusl2i4tRzcqLBOxSicDyRk5Py7P8nGXB5rwxOrgx9QIoK82NW2oMOt19Ft0up9ude0iT5Y4t35PdLjSPYxkFHwJvBzPcRVKMlnhmYpVOhmIgI1aG4w65WrIy0dbGiuVaTk/d4ITxtGLIxlKje4cUx+m8z7bd2GIDwzRVz5gBoakfy5P0jE0g7FKKwPBKy0sXOBOistPFKy1SE/N0LOvR6ya3f1MSaOORY4pik7updqKyRQmYr5mw5iFHiPmmwaSz2Ss0s1ABLzw+2nZwsDbMeCG+jpIR81X2n/eKy7y7d30jgFqMEVSbaWyJskpcGk7roKZcAwx07FKOwPB+8m/YpX4nJFta5x/8k+UTkxZGPKIuZnKP28p0f1sxCEJKQRQTaKyT7K0wLXxqwpiEgrOdKzS0UBol1fp+Gvc7oTerFJkOO5G7VGpRI6Eo99Rq+eK4Ihcrb8nn3OthC5dvHijy2pUNcl4cgbRhwFWaWkg9JLQYb+fhhUHvTAdHvKm3HwrxPBmsn0YUfqxDsklLII67jjpl5bqMC/s0SnXe5h8OGCVtgZCpYHcD+ltJPnzq1cxSxqIaPt71M6K82TJ0jEqRPlyPBJ8DctwPsDk229okacsLwJpCBg/khI9HJ4TnHLzDzg8msjDAau0NhB6m2QkE9aIz+jRJ6EdkRDpJLmMq/vT+tBZjgyWBEi0yA/LWihf4UWRU9GkXDIGR1EgnzSyJnthST93UAEFeqls5DgChwtWaW8g9G6xZmkVCtWbNFkVx7seiGL/8s3zePMeqD22GeXPi1bA0oJIKOQcUCp8Q3ohn08UOD2yI3jh/S5HYuNFP0PGbEojOize++GCVUYYSPglz8A230OFq8WnyKNiPC9+7IJqJy/e2Y8ad/B44qKrWwGbE7gsoNhMwg7DWk7aOXlX3vwtDo8q8nDBKpMMhEa3srE0pBKHkHbQornwcc6qXniIKRhaaq7IT9t29VhfNSQBdcbRHy2oPPx83tv4yhDZMQFfKHLNigmK73GYYJUdHzqmj5UDYynHEXLlefNqTuC+wbff3RIICkeELHu73Sb0yeUAw6XTwKt4YUNSgyIxXoIW40AamPdQbEZ9ts9zZHSJuxtsijUotj2rWR3Azc1wwSpdDEQ6e1RqzZ3s1DyWjwJPHe+l+fMS76Cebxexa5F9jV3gmRYMCOMu9gmHuRu6tBoH5jtCPo3ZKrSAvFiJBXgswcgYyrexVyZgBYQc6WIgwqdPu35cuEb0YRLPY+yrVZYesNv/pEQlDy5j59Vsi3YUd3mZW/m0Le3G0Qs/Xkt4AwTohxxBZ15JzaSFZwhWhWnVB8HMdbX/qLgIb9mXtDcdlZAtSzgR9ThwS4sBcRBoQ7RxhIlLQ6NSMIYBZrqJwzgueMUyNU7u/B1i16C0UvSQCVihtp2YVgZC75p2yX26zXW9yjVIuhYPX53HKycQiwF/DjAHG0GYEeGzBxlJnMahds0Xmne9cjomOyxTsEo7A6EXfbZN6grti9Cwy87gAsIcGYoYCTln1uL4AR2FXqo51BqHwXnUS3xaYZWWBhJ5U7TEonOL6xraG4HCZHjTYrTTQx3+IReGf2VHxaIZyUi+WObuoN/ocKX7dDeOTMEqrQ0kVLhwShXtjeiscxWdanAvQdhuFC5ugVUqmKzwESMGH1kQ4UWhb47cc35zOPQQOSHjsAkONWkYzZMhWPnS30AibxqH7PQ01LxCnk9w8OZYuAlaipnDLSC36mUwgUBA1gkCDPRBpEPzDwlfCRkHUs8vrZ6asBI6CMgQrLqzdcDCfCLgbrTnfWkX/GjRKlesbHJmXz7CWXwxIBTagoGrUAhl843FfNtD/Ar/cEouJtlqhrj3pD7Rsa0lzglrD0iIWqgQnRucqHGEE2AaCNI4BLesm7nKcBiGBVZBoQ2tg9RfKjwrSuQtxGhNoUcH0nAopYPC1dC5wTZfiT6yyHVdvEaih3HQCtvL7xKPK+lH4dg78lj3VtdPWTxqaMMFq8xpYql5q3yeVhYLvibM1bDnOsQ/UU0CGZqaW3oYB+md/eWbF9Iv6zrbLraw6BpowwIry0CiSgTWa0lRj3K3OfmF7E1HWo1EL+MgZfMWVJfLKR0dNqLPrsse+uGClWUgUaUny2bfG/UoewtP9OtkCVGBao1ET+Og2XxMnpZGqTHkllYjH5c8mmq3IULCAcMFK8tAokoArYZFoW2LChpyi2bWTDXL6FUYSXf31pKZek0ChmfzZQcfIpnwt0m7I/eJ/g4XrCwDiSkp549K22OChjxiCf1jQwJlAiJGAqM7FEM+Qn0VoseEx/U42nX/dUiD27zq62x8Ia4EFCINB6zwQUz9ZZZRLEKCtrSO7p/xZn+Nj0rrsHjyV2rRy5vvmSnQPIrd3t5T74k1GLViZPmAnwiCU5YYDoQBNWMEbg6LRyttOGBlGYhMqVDjwh8FrvfM3qpZqT6SmbyfhBw8yOQjOgiH9iz2NdS8Gh2mx32mY2U1sWRKCXztPgYDYC5XwZdl1JiFNS/r5QRBRg1uUOHqA3NVep9vNcI4SMFMx8oyEJliSL52YQC1MqTYoKmDlrLHUg18JleiI6e49kBPZlOQVDjZ4N5glCqZjpVlIAol5/gW130g+RTIA8EooIP3ewxQjLu5svLATai9mqkW46VC+2ZON9Rwh695clj0TMbKMhCFN/+5V+qGc+p7FMiDgslIHMvFN41yEB2dGLYdrxjhcDUgLD86XOHe95dnXT9SoOkWnMlYWQbCKCZh59Rq5w6mjl5Y04ICbMj5JbTOijrE2JO/HSrnMNQeIOHYtkpaSDkQYOBNpmJlGQin0Hh3upaD5QiHLUSmJg8K8GYU5DfVTCaqkUknatFIFRYh/i/kc+c6IjJR+20O++yNBBn+m4lYAfPUX2aaB5FDI95VuhgJCy0t93U3vSJgCb6cbKUwWjqSe/XcFRjCXQUebUvobUKd9zXXdwXskVGSb1R4pmFlGYjKkhJy60OeS1R0jGVE+mmiDjPPEryytNoxWXj+vHAi4jeLJtwuXiYU2gOB60ZMcc3E0G2pjIcUGbFDgygdbBi7RatBDpUUf0gmYWUZiIZyQC++oKSG+iTavuga0kiE1QzGEdE/U7Cy+iCRN6ril/xShfd7qOqTqBCpGwuMoxb78l2prDmiM5MpWFkGEv1WVdzTAkN0Rr8BVrWjWyqkxs8Cwwidz451VstT0edgaZ4JWFkGwnrDSjR0uMk5BEaKKsDiU2JLQngrlnrMJK8uSUgrviTSHCvLQOJ77aFYNPaPWeSv4GE7fckTEKU1qg/Guc5b5/pGKo6g1qos8acrVpaBxPO2o+LQLDJqk5X0Jad+gJGGAtknYBge3xZXEQrcr8zWpIqCRfY2HbGyRrFkX2X8gTRkO/LauStwDkcFwC2OX1J/zLDBSafr3dtPtWM+BY7yEpVplvjpgJVlIAaWlssXeKZeDAYW4mwSJ5KZgT8H/pgXGQReymE4vWs5tc8tBT5u2m/oibpMbZJHNCtWloEkrwyEjj0Ye5XTQQfsBIOB8QC/f02VjTr69h4sXPcqeUVPppqmSAte8M2AFXcvgSnAyhQlMKJz6n3pcKZkx9B8mAQrq5Nu6Fu2hKc7ApaBpPsbtPQ3FAHLQAyF1xKe7ghYBpLub9DS31AELAMxFF5LeLojYBlIur9BS39DEbCGeQ2FN0a4Scb2Y7Qy5eOXgNU1X3M67MH+OSMoGZozsmcJvmDA3pONOSNpu/ypw3pmyDIQPdGMkRXP7HCe0z0sZ9K/fbtnalZWYOGccvWrDr691E0LRA9jwrWlcadb6jjStP/Pb0knYl5DQo/WTHpC8A2NbNT6Il+9e1tPe9OrmbQWy7nMM3HCjLkrHNc7K4BkwuvWIIMMRmra6d72yRtNr3p1WLdmCgOZ9FDwSZtNWIfMyV5Yn9SGDUHXyBJNEpi/cOMNea6a9VBnKUA1qmYmX11b/Puqf+nzSqnch5IQ6rPLN94we3nNeuy7XwpBhmHV+Z605b9fqP6ltzV+rLISyqleke3B6bmTXaUMcWN6+hofErzeAIMnJaQvOpyFV23oeBLePDbDMGbgz8iBj1HZY+EHaGZFJdwL9faO7vwfM2Ki9CIcX3UWVu7seHLS9H6swGcoVvnjHc7rSysqJ0139r53IT6sjFRQCaeh4QHBOzTwUgh9kceOcE69FGKOO/Jy+KVK8QNoQ0vbjfoSymU2n/xvOcrEN6nmkmMwW9iyR8QVtz8ufgCcKqBbUrG6erpz830bxDep5tKKiykMxGa3cw+SCVwM3KQ1c4bxY4QFvrx+i0K6HWnkG5YOX/AMNOsOkWM5PmtqOGg06r664G+vviH1WM0przl0x6PasDKFgfguhFa4MjcCjZ0fGt1IzVuOSpUco5EfXgQtjgpO2S3VXHQ+CLklpfPgU6aITMJF013XrXrcPFhBxWw0t57YsFc9VqYwkPDW0RYZjAeC0FFfRG44BwJScEO+nsLnoJuuuQdDKUeTqz6V55VEv5LZyzd+a+mjBySEmQ+roFCOJlc91W7ROsvdA1dzXGjPu9Fk8bC0OdXgXtLTUPMKi8compHeAvPLPI7gRWFcpnhWJOOYs6ymAe+CWwBl3he1JJq970lS1ztia99Fe/tI7MWXXvSE5jecFR7HBWAlBAPXXX29a6bjBmcp+KfJyOEGofA3P/MT1y3HsfdEidk0BhL2xMesRZAJCQ4SXEqZMSo80/zNGoUTyaVmVbjmKNSUTlA41FTr3vxha9MrrAIrJ/Pb5Z7ioulzV6D5tAp0bekKQt1DDyv7MTaNgVDG0Y7+GApNlAMhEuYTq2Yk1dUNdcj7+xyqmwpoDh7q2V+13le/qTGid9y/5N19vnst+hkeyFA9IID5ks3wfPKPcacbR0RqsoT7HKqxEmAYzb+uWv/6zsSxcgCr7/y9ey0MRRNWmC/Z/OufymNlKgPBaMwmFIT7We8Gha8Bk4bzWTx60mi0CvJUdcihW++5o9KGkEsePZWALDofpOAu8Rd4YeVqReN8kKXJPAKBRqvUYgW+3o/elTa88DP1JwWrzfeVX3eOu/OfgRX6GmrjQJel0GVXLL85Oulhrc593PgsCllfrJLRzyggpYVrDvxtdJhR9zTPAdmqjAN8R+jUWyOMg/JHnk3IvShqhgo8Ujude+UWObfkFjsnchl1YKB5DohRjVXTi1WzjDAOygqtx3p4oW35R++oxwpzJVuumj4UK1PVIJQ5NV9sGFFXzxbX9UYut6AZ8vAkILdZA32SeuQAnVGIY9j2AC6+bjijsPM+23cJW6MumiGnSUDI5+qDAsftGOup57JHD9x09XR1WCHdPQ+VDcYqS09ldJGVFTiSU+SqZMkCyGOw3MLha6g2bESLlo9Ah1ksPYiWbOOgNM8c2vGxkBWow+BBObAYQWFKF9a4XRsQgi3njja2K/EkGk7LR6AHF6tkGwfl6716YCUE6rC8hZpbTKxAv9ZmC7Z89O4lrEzVxKIMhTvgu+mecy01agaZlm+g4Ktpvx5J1WE1hNO5dnER9GQ2SQnDgtLqhzlYxk2m5Rso+Kqw4g2pxq0EJ2Jz7aZ3vO+Ki8DGxWr2ssFYma8GQS4CWba30H5eg9tsVt6zCxylXyia+8fet3dQ9a7bNX5142N46TNYAlEwe9HnWHD2D89/wuIzkoZ8d+YUOU9fVuAo46SDoc9gq/9oI3dJD0fOEPId/8LHCpF60edYcKQ+dVgdrt/RiX7GaSxg5GJlswdbP3qnHyvT1SD0Bk7v9bShM8r96qEQZ+PIspcmrD7wgyFvLs4A2s+BqEt50Wm06qS46X0en9H08NEHEi+dvNJqWoqv60X7OcJL1plyabTqjR2px+rXPwsdEyExlQVxzh2XsDKlgVAGuj+sfhA/rXTPuiJGMn6teDeLTy2NHE+TTBY/ao9DRo1WsdJVon22d2Mlr6mFPM2mHY5KMuIJp81OiMfEiuY5jBqtikfnptqNlYjHbGoBy9m0w5Hkm9ZAaH3W6b1V5VBWcRlABCAq0GiSbcOw7JOJrtcir+wRuUq/NAmoREtF+BnxgT8Bg1pe2tmT5i7j8Wihh3cCMqPQJCCTIcnEN2of+BPKFBerohv7sTKvgQA4asKcb5fI4lVdWMu1zlEp/j5vwcavq4oQw0RfWBS04pjgQY8A95AuM+SDpCb+cFKsfhC6Mb+MOcXOxYmn1C8h/IVlYkW1hx4z5HrpHJHTWBtqnTCxwmx8CCtTGwhl6NgzrhfOtksPRDKn4ndGfklNS+Fq8Smay1DBP8BCRxUMPCjc9NS7NyuQUhpM/TYM6TawlKCjpb/k9GjCREkeOVhQokXCaW1V5N5Mv7+v9bRBHyZWoE/DwshC0xsIAYuO6EZ0irfRvZqLmlw4a7wSE30d49eIv1Db9g6f48FKwu/rxiE2Jr169rm5TYfz2fpsPAt7H2Eh4aeFhyyGVNJgvFysLvYFbkoLAyEgj31Y/SP8vKQR1Jzcyc57Rpe4P8BCyNdp3oRjLLyh3WazHLMsh0Pfx0175cKjw3KnuGZFPydwz8QKcpu1rspNQBfNUTs+4GP15emuWdmaJacqAjrtXsl2O2qEbir0WtVArTIbCyFnC1OcwqgS9wm0j1v8HVKbv0PstgWE7rA8B0vu+aOSxKJHaLSq9Mtzbp4bCAiFdrvQ/fHrTY1aXdDQ8o2rZtw8FzJzgnb7W/+903M4Il/pl9ZrXd4/8qdYeEc6tO3td97uGXchW3CgeTawtyMoBK6CDg4lPSic9nOw6Kmmhf1ntUIPRazQD5maPgYSRvTTp10/nrBGPILRJvIiEpf+iDcOR5wtgqEJ9Kf28h8VCVDmFd4s9DKYJg4wLhO6Xn+haknzzk0HB8IYN3c8It476QanByw5Eba5y9x7tv3EdbuKr/IRxFF86einFEdksn7D66ueA08Zi0+JRpudlGimCbcJR/ChVMQKehanTRMrGtRjT7u2nt5f5USYNzrc6Hu73c5cz0SFCjvp6qDHJePoV2oihROdpyOMYxmM42HwDRhHOM4i7LV4kRff1+AmA2FdXB1oXwcWH4oQEpdxUOK0E5ClhBlor+/kY5WWBkLgnqrf9AaOQ74Rt9vpORnX+fPCCVY631nh/gfQ8xV48sN0BXJ/cLjmUOJZ9J3lnmlKxFB4kPvRUNJvQOz8O0P5mDoQEMfNSGyTjSNaUqMEVWCVtgZCSNJy99AZ5furZuPR8Cr9jNS/L1rpLaLNOkuJRuE8etgrCbMJZAsE4prjYekVS4OREp4JXZE95AkJMUHktDaQCH5Um3jrXN+gzUSYLGuLhKfgt5eTJpuOgQjEpz/W5WcRLZq+CGSEgYQgQeHC+qgd5MMX7fDF6ITXwVh4hU0TmuR9hBUBIzd1idDDcSWGDP8nrU2NDLpgs18abWLxsWid70jNLLoaGnkfUcOXSh41WGWOgUQh7WuoedV7r+2WM3XVRZiFvweG0gBywl9ecs0TlcyQ2xd/V/0sRshkCxeFE31IpJiA12tDa5dkaxoUXI/3fak7JsqgR2w2mzgoIOYBWHTFBA15rH+++lcIPDKEoCEg5JpHA38qWCddz8YKOnVlpIFEwD4pebpoOTg5efBucY31YeTLt9+9HvTtKChUkL34U2045LcK/MoXajHaFOR9R3oCTJFC3kvPFB52kKccHxTa3AMjmY1bMuq+MHMbjKP81/e6Hgk/K/6MnMyd52AaGAmmoeQXf+Jy4ZZZIyoqQQT4rWLSTUDE/hD2QERQ6MaHzboiCGC2/QIAyY48x/6ePSo9QfMwseFmesae/mPQp1BJJ3wYXsYH4zYlemw4TRSeyxLyR2YPGKtAxwnc/rB4HLyKWNFH4cV7zY0VvLAwscIcycuKGYwFajg8wzgOI58zlPKK9V2lSjQzhIeX0SgaB+mI1QCaRvvCo1FyQ7ZMrMIeD80Ai6wO4dXITKy8h6XWjG5iySLDCrQJLUwyVsOOWegpZvGkkjbCMZe7s/KvHSIzj2r1x8eEJ2caeTxUKy/ZfI6v8bHqahVbLAOJejOn9rmlqEfZ29yrQ7voZGmpDkT/o5yjg7/nz02qlrtw5Ah0JiCPh9yB8nhSRcdmLy5WR1qbDloGEvWGAh837UcbPdIxjqJcusWCx1WJ7lq8JE2/u7z5VfMgjdnpDA1MMBw1a9GGDswEPxMrTIyuooWbWuQmg3fOMj5W0CO0GtkykKg3Qqth8ShFBcndFpKvXDlCKsPGzqu+n5c+DgJ9icejlh5eDStx+AvJVy6HJ+nk2cv5WDW90I+VZSAxr+d0vXt7TNCQR9QiHvKVO4SQogA4rPghknZykvfb2vXdwIRNR9s5adLyGg/5yuXxJYu+7FF1WH3yXj9WloHEvJlT/YWoOyY49jGfHEnHBqbimQwVvrEe46UdtAm1ertq/aQ5VIi4WJEjaZ5+yaCToWLug4sVBiBqIyfjWgYS+2ZwtjbWdG2JDY59BojlYefWsaSkPhesFJ+DLhN5iZ6pq6LJS10v2gRGRy3zhJKX9bBzax6rofQVD4rPIQEuVo0vXsLKMhCZV0LnkCPYJ0MaFJQz2bmFHEkPCkziAx0XgQ1Qi1Qk+ZJRTu7oHHKkz8UKh3huIUfSKnQ1hAWHd26CYD5WNuGlaCd3WYZok+ZC/T6vH4W/F2eS/w0nK9lZ+UXfJ0fS/vamTzm8upJpfz36Qv+sQqgfLoFuO9cunVTBq5nF1+31o5/Rmzeej1XeeGAFR9IfvZtcrOhkW+ioCiuptvq2rncvYWXVIApFAp4dt4KkZtY5H0cxNxeuPjBXQZTuwVRzwDhUNZnIhSu5BNJdiSiBL/yXeqxwFHPz7Y8mDyuqOWAcqrBCc/Hh3/e7BBrInVWDDEARc+P1BlAztOCIgVVo4zM/JKCPyCooKidH0p+/vUOXibgYbUKP1CGfsL5jF5xVr5Kjy4S1dh1cuVygvBh5heQHWnDEAOnFxAr0Efnji8rJkTSOJjAMK+qQr3uuYxecVavG6qnnhmJlGQij4FCzSaX3dGw/EezkZT2/1OO8ePFiy3lv02cM0ZpJNJQ7usTz7+hzzFQTGZOCvd3b5pVcfFvUVQ+ltKnZpNJ7Oomwk5f1OeUeZ1C42PLxu/piRUO5c+/w/DvSUYUV+Hpr188rOf2HoVjhvVoXDwGs8t0JoMp5fBE6Cmcf+GvJHWiizRuaIQ9PAjoj8nm/lP65o+Li7qdLfsfj1Zu+YS+w0nA2INLvg7615A40tnmjVTeaIQ9PAjo1xO3reE9c/NJP5bGyDEQNkk5ntqNMrAerFuCxWhqGAneg5PGQnLqFZ+q5KdKqXFp4GF5bNZUbIYaBNomFj0WIoSThEVjdt0E7VtCsD38N5PGQnLqFZ+q5CtOqXFp4GF5bpRmrznele8LHIsimZRmILCwygXCFM2m5+BoAmy1DVRtEnf4jIdc8UR41aOsn7QSEQdALnoU/5jJsVmIpNY6wYuQ2aPXj4mv4QCSGFfxWkWueaO8jhBXtBAxvdkoIK55xUHYsA2GVtlgaXrzjTvE3qBrKYkmpfqbayt8urU9ZzREDQPjM9N8g2HRYQac+GMd6Vs0RyY7VSY8goeb3uPe8r69xV47dUYA5km+qiZIMHhgHzmcXl3z6TMnOZKSnJo2/AqvmrsZdV+c5CtAhNw1W0L0XfY4lL/5MHVZWDaLmbcvw0KgSnUMOUr4MOZlBrce2zVtyru2AaT0Z0qgSmkSmwAqjVUs+PqweK8tAEijKucXOiVfcLT6lcrlHAinJRqU1Yw+Hjqrr96cly2SWwKumOyfe+aj4FPThL/fQX2laM/bwr3+Hg3M0YmUZiA4vY0xp1cLwUcszdBCnRgTWVlVvTHQIWU1CevPMWV61MHzUcnKwwtoqaWf1xniHkC0D0bEE5JdW3UqnyQLUREZvlDTy05J1WpVr1MJDpYSNCJ9zZ9WtdJpsgiNdSqr58Q5qaVVu9MJDJWZWuGUgLHTipNE8Bh2YSWcC0rFncYqhaH4UoGbaCUibnfTez5GAXrpFpXkMOjAT66UWQ2hCWCF+M+0EpM1Okf0ciSpqGUiiCHLi05mAdOwZnexEh9egv0KePmieY1DnHobQhbBu/HnJNQ95Hwk5WNBpDznkmv6Cu9JCOvaMTnaCwdCckCxWCO/CUHsIK3LNQ95HyMGCirNTNGPw/wHumRxls3KojQAAAABJRU5ErkJggg==;" vertex="1" parent="1">
          <mxGeometry x="550" y="760" width="50" height="50" as="geometry" />
        </mxCell>
        <mxCell id="c-1eg6soqsbluL0bjHq3-42" style="edgeStyle=orthogonalEdgeStyle;rounded=0;orthogonalLoop=1;jettySize=auto;html=1;" edge="1" parent="1" source="c-1eg6soqsbluL0bjHq3-39">
          <mxGeometry relative="1" as="geometry">
            <mxPoint x="575" y="570" as="targetPoint" />
          </mxGeometry>
        </mxCell>
        <mxCell id="c-1eg6soqsbluL0bjHq3-43" value="Build and Push&lt;div&gt;Assets to&lt;/div&gt;&lt;div&gt;prefixed path&lt;/div&gt;" style="edgeLabel;html=1;align=center;verticalAlign=middle;resizable=0;points=[];" connectable="0" vertex="1" parent="c-1eg6soqsbluL0bjHq3-42">
          <mxGeometry x="0.2073" y="-1" relative="1" as="geometry">
            <mxPoint as="offset" />
          </mxGeometry>
        </mxCell>
      </root>
    </mxGraphModel>
  </diagram>
</mxfile>
